<svg xmlns="http://www.w3.org/2000/svg" enable-background="new 0 0 47.5 47.5" viewBox="0 0 47.5 47.5"><defs><clipPath id="a" clipPathUnits="userSpaceOnUse"><path d="M 0,38 38,38 38,0 0,0 0,38 Z"/></clipPath><clipPath id="b" clipPathUnits="userSpaceOnUse"><path d="m 1.96289,36.248 34.07421,0 0,-26.60738 -34.07421,0 0,26.60738 z"/></clipPath></defs><g clip-path="url(#a)" transform="matrix(1.25 0 0 -1.25 0 47.5)"><path fill="#292f33" d="m 0,0 -5,0 -2,0 -5,0 c 0,0 -5,-6 -5,-10 0,-4 11,-11 11,-11 0,0 11,7 11,11 C 5,-6 0,0 0,0" transform="translate(25 23)"/><path fill="#292f33" d="M 0,0 C -0.901,0.704 -2.377,0.704 -3.278,0 L -18,-11.497 c -0.902,-0.703 -0.902,-1.856 0,-2.559 l 14.721,-11.495 c 0.902,-0.704 2.377,-0.704 3.278,0 l 14.723,11.495 c 0.901,0.703 0.901,1.856 0,2.559 L 0,0 Z" transform="translate(20.64 35.72)"/><g clip-path="url(#b)" opacity=".25"><path fill="#67757f" d="M 0,0 C -0.901,0.704 -2.377,0.704 -3.278,0 L -18,-11.497 c -0.902,-0.703 -0.902,-1.856 0,-2.559 l 14.721,-11.495 c 0.902,-0.704 2.377,-0.704 3.278,0 l 14.723,11.495 c 0.901,0.703 0.901,1.856 0,2.559 L 0,0 Z" transform="translate(20.64 35.72)"/></g><path fill="#fcab40" d="m 0,0 c 0,0 -2,-2 -2,-3 l 0,-6 c 0,0 0,-2 2,-2 2,0 2,2 2,2 l 0,6 C 2,-2 0,0 0,0" transform="translate(9 12)"/><path fill="#fdd888" d="m 0,0 c 0,-1.658 -1.343,-3 -3,-3 -1.657,0 -3,1.342 -3,3 0,1.658 1.343,3 3,3 1.657,0 3,-1.342 3,-3" transform="translate(12 11)"/><path fill="#fcab40" d="m 0,0 c -0.552,0 -1,0.447 -1,1 l 0,3.958 c -0.042,0.634 0.187,2.036 1.317,2.884 l 9.022,7.91 c 0.416,0.365 1.048,0.323 1.411,-0.093 0.365,-0.415 0.323,-1.047 -0.092,-1.411 L 1.576,6.29 C 0.973,5.834 0.999,5.018 0.999,5.01 L 1,1 C 1,0.447 0.552,0 0,0" transform="translate(9.002 10)"/><g transform="translate(22 24)"><path fill="#292f33" d="m 0,0 c 0,-1.657 -1.343,-3 -3,-3 -1.657,0 -3,1.343 -3,3 0,1.657 1.343,3 3,3 1.657,0 3,-1.343 3,-3"/></g></g></svg>